<svg width="48" height="29" viewBox="0 0 48 29" fill="none" xmlns="http://www.w3.org/2000/svg">
<path fill-rule="evenodd" clip-rule="evenodd" d="M0 28.9181H6.24258V0.285645H0V28.9181Z" fill="white"/>
<path fill-rule="evenodd" clip-rule="evenodd" d="M7.74603 28.9181H7.48096V14.3313H7.74603C7.81684 14.3313 14.8322 14.4148 14.8322 21.6246C14.8322 28.8347 7.81684 28.9181 7.74603 28.9181Z" fill="white"/>
<path fill-rule="evenodd" clip-rule="evenodd" d="M30.7581 14.5391H17.3381V19.6232H29.1284L17.3381 23.8337V28.918H30.7581V23.8337H18.9677L30.7581 19.6232V14.5391Z" fill="white"/>
<path fill-rule="evenodd" clip-rule="evenodd" d="M33.2719 28.9181H39.5144V14.3313H33.2719V28.9181Z" fill="white"/>
<path fill-rule="evenodd" clip-rule="evenodd" d="M47.9998 21.8805H40.5771V14.3401H40.8477C43.4854 14.3401 45.5558 15.6 46.8355 17.983C47.7899 19.7606 47.9649 21.512 47.9717 21.5856L47.9998 21.8805Z" fill="white"/>
</svg>
