<svg width="17" height="18" viewBox="0 0 17 18" fill="none" xmlns="http://www.w3.org/2000/svg">
<path d="M16.8037 16.4891L11.8855 11.4925C14.0416 8.81966 13.8916 4.86892 11.4353 2.37381C8.81952 -0.283495 4.57798 -0.283495 1.96219 2.37403C-0.653992 5.03136 -0.653992 9.34029 1.96176 11.9976C4.4181 14.4928 8.30712 14.6451 10.9382 12.4549L15.8565 17.4513C16.1182 17.7172 16.5421 17.7172 16.8037 17.4513C17.0654 17.1855 17.0654 16.7549 16.8037 16.4891ZM2.90899 11.0351C0.816553 8.90923 0.816553 5.46242 2.90899 3.33609C5.00231 1.21041 8.39519 1.21041 10.4876 3.33609C12.5809 5.46242 12.5809 8.90923 10.4881 11.0354C8.39519 13.1615 5.00229 13.1612 2.90899 11.0351Z" fill="white"/>
</svg>
