<svg width="24" height="22" viewBox="0 0 24 22" fill="none" xmlns="http://www.w3.org/2000/svg">
<path d="M1 1.34912H4.40425L6.95744 14.75H20.1489" stroke="white" stroke-linecap="round" stroke-linejoin="round"/>
<path d="M4.82983 3.94287H22.7021L21 11.724H6.53196" stroke="white" stroke-linejoin="round"/>
<path d="M11.8192 19.3754C11.8192 20.372 11.0259 21.1665 10.0638 21.1665C9.10176 21.1665 8.30847 20.372 8.30847 19.3754C8.30847 18.3787 9.10176 17.5842 10.0638 17.5842C11.0259 17.5842 11.8192 18.3787 11.8192 19.3754Z" stroke="white"/>
<path d="M18.8828 19.3754C18.8828 20.372 18.0895 21.1665 17.1275 21.1665C16.1655 21.1665 15.3722 20.372 15.3722 19.3754C15.3722 18.3787 16.1655 17.5842 17.1275 17.5842C18.0895 17.5842 18.8828 18.3787 18.8828 19.3754Z" stroke="white"/>
</svg>
