<svg width="32" height="27" viewBox="0 0 32 27" fill="none" xmlns="http://www.w3.org/2000/svg">
<path d="M1 7H4.35106L6.86436 20.1915H19.8497" stroke="#0D057F" stroke-linecap="round" stroke-linejoin="round"/>
<path d="M4.77002 9.55322H22.3631L20.6875 17.2128H6.44555" stroke="#0D057F" stroke-linejoin="round"/>
<path d="M11.6424 24.7446C11.6424 25.7215 10.8649 26.4999 9.92228 26.4999C8.97966 26.4999 8.20215 25.7215 8.20215 24.7446C8.20215 23.7677 8.97966 22.9893 9.92228 22.9893C10.8649 22.9893 11.6424 23.7677 11.6424 24.7446Z" stroke="#0D057F"/>
<path d="M18.5955 24.7446C18.5955 25.7215 17.818 26.4999 16.8755 26.4999C15.9329 26.4999 15.1554 25.7215 15.1554 24.7446C15.1554 23.7677 15.9329 22.9893 16.8755 22.9893C17.818 22.9893 18.5955 23.7677 18.5955 24.7446Z" stroke="#0D057F"/>
<circle cx="23" cy="9" r="8" fill="#F9571F" stroke="white"/>
<path d="M23.9 12V6.504H21.764V7.6H22.716V12H23.9Z" fill="white"/>
</svg>
