<svg width="48" height="29" viewBox="0 0 48 29" fill="none" xmlns="http://www.w3.org/2000/svg">
<path d="M6.2592 28.1279H0V0H6.2592V28.1279Z" fill="#0D057F"/>
<path d="M7.7663 28.1277H7.50055V13.791H7.7663C7.83624 13.791 14.87 13.8732 14.87 20.9594C14.87 28.0456 7.83624 28.1277 7.7663 28.1277Z" fill="#0D057F"/>
<path d="M30.8431 14.0098H17.3893V19.0031H29.2084L17.4103 23.1398V28.1349H30.8728V23.1328H19.0398L30.8379 18.9961L30.8431 14.0098Z" fill="#0D057F"/>
<path d="M39.6217 28.1277H33.3625V13.791H39.6217V28.1277Z" fill="#0D057F"/>
<path d="M48 21.2289H40.7075V13.7983H40.9732C43.5643 13.7983 45.5994 15.0397 46.8565 17.3878C47.4391 18.4946 47.817 19.6976 47.972 20.9387L48 21.2289Z" fill="#0D057F"/>
</svg>
